{"accessors" : [{"bufferView" : 0, "byteOffset" : 0, "componentType" : 5123, "count" : 2880, "type" : "SCALAR", "max" : [2429], "min" : [0]}, {"bufferView" : 1, "byteOffset" : 0, "componentType" : 5126, "count" : 2430, "type" : "VEC3", "max" : [0.9999997019767761, 1, 0.9999993443489075], "min" : [-0.9999990463256836, -1, -1], "name" : "POSITION"}, {"bufferView" : 1, "byteOffset" : 12, "componentType" : 5126, "count" : 2430, "type" : "VEC3", "max" : [1.0000044107437134, 1.0000044107437134, 1.0000044107437134], "min" : [-1.0000044107437134, -1.0000044107437134, -1.0000044107437134], "name" : "NORMAL"}, {"bufferView" : 1, "byteOffset" : 24, "componentType" : 5126, "count" : 2430, "type" : "VEC2", "max" : [1, 2], "min" : [0, 1], "name" : "TEXCOORD_0"}, {"bufferView" : 0, "byteOffset" : 5760, "componentType" : 5123, "count" : 186, "type" : "SCALAR", "max" : [171], "min" : [0]}, {"bufferView" : 2, "byteOffset" : 0, "componentType" : 5126, "count" : 172, "type" : "VEC3", "max" : [1, 1, 1], "min" : [-1, -1, -1], "name" : "POSITION"}, {"bufferView" : 2, "byteOffset" : 12, "componentType" : 5126, "count" : 172, "type" : "VEC3", "max" : [0.8944311141967773, 1.0000044107437134, 0.8944311141967773], "min" : [-0.8944311141967773, -1.0000044107437134, -0.8944311141967773], "name" : "NORMAL"}, {"bufferView" : 2, "byteOffset" : 24, "componentType" : 5126, "count" : 172, "type" : "VEC2", "max" : [0.9900000095367432, 1.9900000095367432], "min" : [0.01000000536441803, 1.5099999904632568], "name" : "TEXCOORD_0"}, {"bufferView" : 0, "byteOffset" : 6132, "componentType" : 5123, "count" : 2880, "type" : "SCALAR", "max" : [2429], "min" : [0]}, {"bufferView" : 3, "byteOffset" : 0, "componentType" : 5126, "count" : 2430, "type" : "VEC3", "max" : [0.9999997019767761, 1, 0.9999993443489075], "min" : [-0.9999990463256836, -1, -1], "name" : "POSITION"}, {"bufferView" : 3, "byteOffset" : 12, "componentType" : 5126, "count" : 2430, "type" : "VEC3", "max" : [1.0000044107437134, 1.0000044107437134, 1.0000044107437134], "min" : [-1.0000044107437134, -1.0000044107437134, -1.0000044107437134], "name" : "NORMAL"}, {"bufferView" : 3, "byteOffset" : 24, "componentType" : 5126, "count" : 2430, "type" : "VEC2", "max" : [1, 2], "min" : [0, 1], "name" : "TEXCOORD_0"}, {"bufferView" : 0, "byteOffset" : 11892, "componentType" : 5123, "count" : 186, "type" : "SCALAR", "max" : [171], "min" : [0]}, {"bufferView" : 4, "byteOffset" : 0, "componentType" : 5126, "count" : 172, "type" : "VEC3", "max" : [1, 1, 1], "min" : [-1, -1, -1], "name" : "POSITION"}, {"bufferView" : 4, "byteOffset" : 12, "componentType" : 5126, "count" : 172, "type" : "VEC3", "max" : [0.8944311141967773, 1.0000044107437134, 0.8944311141967773], "min" : [-0.8944311141967773, -1.0000044107437134, -0.8944311141967773], "name" : "NORMAL"}, {"bufferView" : 4, "byteOffset" : 24, "componentType" : 5126, "count" : 172, "type" : "VEC2", "max" : [0.9900000095367432, 1.9900000095367432], "min" : [0.01000000536441803, 1.5099999904632568], "name" : "TEXCOORD_0"}, {"bufferView" : 0, "byteOffset" : 12264, "componentType" : 5123, "count" : 372, "type" : "SCALAR", "max" : [311], "min" : [0]}, {"bufferView" : 5, "byteOffset" : 0, "componentType" : 5126, "count" : 312, "type" : "VEC3", "max" : [1, 1, 1], "min" : [-1, -1, -1], "name" : "POSITION"}, {"bufferView" : 5, "byteOffset" : 12, "componentType" : 5126, "count" : 312, "type" : "VEC3", "max" : [0.9951908588409424, 1.0000044107437134, 0.9951908588409424], "min" : [-0.9951908588409424, -1.0000044107437134, -0.9951908588409424], "name" : "NORMAL"}, {"bufferView" : 5, "byteOffset" : 24, "componentType" : 5126, "count" : 312, "type" : "VEC2", "max" : [1, 1.9900000095367432], "min" : [0, 1], "name" : "TEXCOORD_0"}, {"bufferView" : 0, "byteOffset" : 13008, "componentType" : 5123, "count" : 372, "type" : "SCALAR", "max" : [311], "min" : [0]}, {"bufferView" : 6, "byteOffset" : 0, "componentType" : 5126, "count" : 312, "type" : "VEC3", "max" : [1, 1, 1], "min" : [-1, -1, -1], "name" : "POSITION"}, {"bufferView" : 6, "byteOffset" : 12, "componentType" : 5126, "count" : 312, "type" : "VEC3", "max" : [0.9951908588409424, 1.0000044107437134, 0.9951908588409424], "min" : [-0.9951908588409424, -1.0000044107437134, -0.9951908588409424], "name" : "NORMAL"}, {"bufferView" : 6, "byteOffset" : 24, "componentType" : 5126, "count" : 312, "type" : "VEC2", "max" : [1, 1.9900000095367432], "min" : [0, 1], "name" : "TEXCOORD_0"}, {"bufferView" : 0, "byteOffset" : 13752, "componentType" : 5123, "count" : 372, "type" : "SCALAR", "max" : [311], "min" : [0]}, {"bufferView" : 7, "byteOffset" : 0, "componentType" : 5126, "count" : 312, "type" : "VEC3", "max" : [1, 1, 1], "min" : [-1, -1, -1], "name" : "POSITION"}, {"bufferView" : 7, "byteOffset" : 12, "componentType" : 5126, "count" : 312, "type" : "VEC3", "max" : [0.9951908588409424, 1.0000044107437134, 0.9951908588409424], "min" : [-0.9951908588409424, -1.0000044107437134, -0.9951908588409424], "name" : "NORMAL"}, {"bufferView" : 7, "byteOffset" : 24, "componentType" : 5126, "count" : 312, "type" : "VEC2", "max" : [1, 1.9900000095367432], "min" : [0, 1], "name" : "TEXCOORD_0"}, {"bufferView" : 0, "byteOffset" : 14496, "componentType" : 5123, "count" : 372, "type" : "SCALAR", "max" : [311], "min" : [0]}, {"bufferView" : 8, "byteOffset" : 0, "componentType" : 5126, "count" : 312, "type" : "VEC3", "max" : [1, 1, 1], "min" : [-1, -1, -1], "name" : "POSITION"}, {"bufferView" : 8, "byteOffset" : 12, "componentType" : 5126, "count" : 312, "type" : "VEC3", "max" : [0.9951908588409424, 1.0000044107437134, 0.9951908588409424], "min" : [-0.9951908588409424, -1.0000044107437134, -0.9951908588409424], "name" : "NORMAL"}, {"bufferView" : 8, "byteOffset" : 24, "componentType" : 5126, "count" : 312, "type" : "VEC2", "max" : [1, 1.9900000095367432], "min" : [0, 1], "name" : "TEXCOORD_0"}, {"bufferView" : 0, "byteOffset" : 15240, "componentType" : 5123, "count" : 372, "type" : "SCALAR", "max" : [311], "min" : [0]}, {"bufferView" : 9, "byteOffset" : 0, "componentType" : 5126, "count" : 312, "type" : "VEC3", "max" : [1, 1, 1], "min" : [-1, -1, -1], "name" : "POSITION"}, {"bufferView" : 9, "byteOffset" : 12, "componentType" : 5126, "count" : 312, "type" : "VEC3", "max" : [0.9951908588409424, 1.0000044107437134, 0.9951908588409424], "min" : [-0.9951908588409424, -1.0000044107437134, -0.9951908588409424], "name" : "NORMAL"}, {"bufferView" : 9, "byteOffset" : 24, "componentType" : 5126, "count" : 312, "type" : "VEC2", "max" : [1, 1.9900000095367432], "min" : [0, 1], "name" : "TEXCOORD_0"}], "asset" : {"generator" : "Aspose.3D 24.1.0", "version" : "2.0"}, "buffers" : [{"uri" : "data:application/octet-stream;base64,", "byteLength" : 271768}], "bufferViews" : [{"buffer" : 0, "byteOffset" : 0, "byteLength" : 15984, "target" : 34963}, {"buffer" : 0, "byteOffset" : 15988, "byteLength" : 92160, "byteStride" : 32, "target" : 34962}, {"buffer" : 0, "byteOffset" : 108152, "byteLength" : 5952, "byteStride" : 32, "target" : 34962}, {"buffer" : 0, "byteOffset" : 114108, "byteLength" : 92160, "byteStride" : 32, "target" : 34962}, {"buffer" : 0, "byteOffset" : 206272, "byteLength" : 5952, "byteStride" : 32, "target" : 34962}, {"buffer" : 0, "byteOffset" : 212228, "byteLength" : 11904, "byteStride" : 32, "target" : 34962}, {"buffer" : 0, "byteOffset" : 224136, "byteLength" : 11904, "byteStride" : 32, "target" : 34962}, {"buffer" : 0, "byteOffset" : 236044, "byteLength" : 11904, "byteStride" : 32, "target" : 34962}, {"buffer" : 0, "byteOffset" : 247952, "byteLength" : 11904, "byteStride" : 32, "target" : 34962}, {"buffer" : 0, "byteOffset" : 259860, "byteLength" : 11904, "byteStride" : 32, "target" : 34962}], "materials" : [{"name" : "Material.001", "pbrMetallicRoughness" : {"baseColorFactor" : [0.008023539558053017, 0.5394559502601624, 0.7990451455116272, 1], "metallicFactor" : 0, "roughnessFactor" : 0.5}, "emissiveFactor" : [0, 0, 0], "alphaMode" : "OPAQUE", "doubleSided" : true}, {"name" : "Material.002", "pbrMetallicRoughness" : {"baseColorFactor" : [0.008023539558053017, 0.5394559502601624, 0.7990451455116272, 1], "metallicFactor" : 0, "roughnessFactor" : 0.5}, "emissiveFactor" : [0, 0, 0], "alphaMode" : "OPAQUE", "doubleSided" : true}, {"name" : "Material.001", "pbrMetallicRoughness" : {"baseColorFactor" : [0.008023539558053017, 0.5394559502601624, 0.7990451455116272, 1], "metallicFactor" : 0, "roughnessFactor" : 0.5}, "emissiveFactor" : [0, 0, 0], "alphaMode" : "OPAQUE", "doubleSided" : true}, {"name" : "Material.002", "pbrMetallicRoughness" : {"baseColorFactor" : [0.008023539558053017, 0.5394559502601624, 0.7990451455116272, 1], "metallicFactor" : 0, "roughnessFactor" : 0.5}, "emissiveFactor" : [0, 0, 0], "alphaMode" : "OPAQUE", "doubleSided" : true}, {"name" : "Material.003", "pbrMetallicRoughness" : {"baseColorFactor" : [1, 0.9715231657028198, 0.9413286447525024, 1], "metallicFactor" : 0, "roughnessFactor" : 0.5}, "emissiveFactor" : [0, 0, 0], "alphaMode" : "OPAQUE", "doubleSided" : true}, {"name" : "Material.003", "pbrMetallicRoughness" : {"baseColorFactor" : [1, 0.9715231657028198, 0.9413286447525024, 1], "metallicFactor" : 0, "roughnessFactor" : 0.5}, "emissiveFactor" : [0, 0, 0], "alphaMode" : "OPAQUE", "doubleSided" : true}, {"name" : "Material.003", "pbrMetallicRoughness" : {"baseColorFactor" : [1, 0.9715231657028198, 0.9413286447525024, 1], "metallicFactor" : 0, "roughnessFactor" : 0.5}, "emissiveFactor" : [0, 0, 0], "alphaMode" : "OPAQUE", "doubleSided" : true}, {"name" : "Material.003", "pbrMetallicRoughness" : {"baseColorFactor" : [1, 0.9715231657028198, 0.9413286447525024, 1], "metallicFactor" : 0, "roughnessFactor" : 0.5}, "emissiveFactor" : [0, 0, 0], "alphaMode" : "OPAQUE", "doubleSided" : true}, {"name" : "Material.003", "pbrMetallicRoughness" : {"baseColorFactor" : [1, 0.9715231657028198, 0.9413286447525024, 1], "metallicFactor" : 0, "roughnessFactor" : 0.5}, "emissiveFactor" : [0, 0, 0], "alphaMode" : "OPAQUE", "doubleSided" : true}], "meshes" : [{"primitives" : [{"attributes" : {"POSITION" : 1, "NORMAL" : 2, "TEXCOORD_0" : 3}, "indices" : 0, "material" : 0, "mode" : 4}]}, {"primitives" : [{"attributes" : {"POSITION" : 5, "NORMAL" : 6, "TEXCOORD_0" : 7}, "indices" : 4, "material" : 1, "mode" : 4}]}, {"primitives" : [{"attributes" : {"POSITION" : 9, "NORMAL" : 10, "TEXCOORD_0" : 11}, "indices" : 8, "material" : 2, "mode" : 4}]}, {"primitives" : [{"attributes" : {"POSITION" : 13, "NORMAL" : 14, "TEXCOORD_0" : 15}, "indices" : 12, "material" : 3, "mode" : 4}]}, {"primitives" : [{"attributes" : {"POSITION" : 17, "NORMAL" : 18, "TEXCOORD_0" : 19}, "indices" : 16, "material" : 4, "mode" : 4}]}, {"primitives" : [{"attributes" : {"POSITION" : 21, "NORMAL" : 22, "TEXCOORD_0" : 23}, "indices" : 20, "material" : 5, "mode" : 4}]}, {"primitives" : [{"attributes" : {"POSITION" : 25, "NORMAL" : 26, "TEXCOORD_0" : 27}, "indices" : 24, "material" : 6, "mode" : 4}]}, {"primitives" : [{"attributes" : {"POSITION" : 29, "NORMAL" : 30, "TEXCOORD_0" : 31}, "indices" : 28, "material" : 7, "mode" : 4}]}, {"primitives" : [{"attributes" : {"POSITION" : 33, "NORMAL" : 34, "TEXCOORD_0" : 35}, "indices" : 32, "material" : 8, "mode" : 4}]}], "nodes" : [{"matrix" : [1.9097402095794678, 0, 0, 0, 0, 1.3061950206756592, 0, 0, 0, 0, 1.9097402095794678, 0, 0, 0, 0, 1], "mesh" : 0, "name" : "Sphere"}, {"matrix" : [-0.17503712698857643, 0.33963578009939366, 0.06410579133251627, 0, -0.33979149712240636, -0.18224827287478487, 0.037779845556047166, 0, 0.06327522492575986, -0.03915501402376704, 0.38021462226440134, 0, -1.791244626045227, -0.6398969888687134, 0.15287134051322937, 1], "mesh" : 1, "name" : "Cone"}, {"matrix" : [-1.3575726101497965, 0, -0.3174250579446214, 0, 0, 0.9540001153945923, 0, 0, 0.3149718142446748, 0, -1.3470805069912262, 0, 1.5600953102111816, 0.9983463883399963, -1.031715750694275, 1], "mesh" : 2, "name" : "Sphere.001"}, {"matrix" : [0.13514362485309497, 0.2480583239303706, -0.01648447974322407, 0, 0.247936572318563, -0.13310795282834598, 0.02963472838132416, 0, 0.018224686535010064, -0.02859747916074075, -0.2809243977039867, 0, 2.8594202995300293, 0.530987560749054, -0.8425735235214233, 1], "mesh" : 3, "name" : "Cone.001"}, {"matrix" : [0.0005183437600890823, 0.0865640472786886, 0.003752298158426411, 0, 1.0224416528422697, 0.003944161850441424, -0.23222637621493394, 0, 0.024556892792108015, -0.0048301128782997525, 0.10803657410023197, 0, 0.18974155187606812, 0.6765179634094238, 1.605332612991333, 1], "mesh" : 4, "name" : "Cylinder"}, {"matrix" : [0.0004736825383065879, 0.0791055680430361, 0.0034289957416751343, 0, 0.9340472034791671, 0.003603172201490699, -0.2121494034556922, 0, 0.022296156999451734, -0.00438544839264686, 0.09809060747850921, 0, 0.16889533400535583, 0.24643440544605255, 1.8561424016952515, 1], "mesh" : 5, "name" : "Cylinder.001"}, {"matrix" : [0.0004911438709053571, 0.08202163212036545, 0.0035553986176164874, 0, 0.9687893360613421, 0.003737193143766759, -0.22004035658379215, 0, 0.023268271768920854, -0.004576654399733258, 0.10236736819016018, 0, 0.1945570707321167, -0.1762666404247284, 1.9228895902633667, 1], "mesh" : 6, "name" : "Cylinder.002"}, {"matrix" : [0.00029682620737788416, 0.049570342678517516, 0.002148729832336717, 0, 0.5854947295357343, 0.0022585992717760184, -0.13298295539538896, 0, 0.01406234401113529, -0.0027659333373906956, 0.06186644033130713, 0, 1.642961025238037, 1.2982089519500732, 0.34053778648376465, 1], "mesh" : 7, "name" : "Cylinder.003"}, {"matrix" : [0.00028211715645332135, 0.04711518879254954, 0.0020423079383081414, 0, 0.5564958129229746, 0.0021468320508149447, -0.12639646445813066, 0, 0.013365853636537507, -0.0026289399442191723, 0.05880226609218261, 0, 1.642961025238037, 1.0387523174285889, 0.34053778648376465, 1], "mesh" : 8, "name" : "Cylinder.004"}], "scene" : 0, "scenes" : [{"nodes" : [0, 1, 2, 3, 4, 5, 6, 7, 8]}]}